<mxfile host="app.diagrams.net" agent="Mozilla/5.0 (Windows NT 10.0; Win64; x64) AppleWebKit/537.36 (KHTML, like Gecko) Chrome/133.0.0.0 Safari/537.36 Edg/133.0.0.0" version="26.0.16">
  <diagram name="Page-1" id="K9zKuAk0ogMYaEhA33CR">
    <mxGraphModel dx="2194" dy="1149" grid="1" gridSize="10" guides="1" tooltips="1" connect="1" arrows="1" fold="1" page="1" pageScale="1" pageWidth="827" pageHeight="1169" math="0" shadow="0">
      <root>
        <mxCell id="0" />
        <mxCell id="1" parent="0" />
        <mxCell id="_vVY-Tt0w3IMkvs-we_h-6" style="edgeStyle=orthogonalEdgeStyle;rounded=0;orthogonalLoop=1;jettySize=auto;html=1;entryX=0;entryY=0.5;entryDx=0;entryDy=0;" edge="1" parent="1" source="_vVY-Tt0w3IMkvs-we_h-1" target="_vVY-Tt0w3IMkvs-we_h-3">
          <mxGeometry relative="1" as="geometry" />
        </mxCell>
        <mxCell id="_vVY-Tt0w3IMkvs-we_h-1" value="" style="ellipse;whiteSpace=wrap;html=1;" vertex="1" parent="1">
          <mxGeometry x="40" y="210" width="120" height="80" as="geometry" />
        </mxCell>
        <mxCell id="_vVY-Tt0w3IMkvs-we_h-2" value="lista de marcas" style="swimlane;fontStyle=0;childLayout=stackLayout;horizontal=1;startSize=30;horizontalStack=0;resizeParent=1;resizeParentMax=0;resizeLast=0;collapsible=1;marginBottom=0;whiteSpace=wrap;html=1;" vertex="1" parent="1">
          <mxGeometry x="240" y="205" width="140" height="90" as="geometry" />
        </mxCell>
        <mxCell id="_vVY-Tt0w3IMkvs-we_h-3" value="descricao" style="text;strokeColor=none;fillColor=none;align=left;verticalAlign=middle;spacingLeft=4;spacingRight=4;overflow=hidden;points=[[0,0.5],[1,0.5]];portConstraint=eastwest;rotatable=0;whiteSpace=wrap;html=1;" vertex="1" parent="_vVY-Tt0w3IMkvs-we_h-2">
          <mxGeometry y="30" width="140" height="30" as="geometry" />
        </mxCell>
        <mxCell id="_vVY-Tt0w3IMkvs-we_h-4" value="observacao" style="text;strokeColor=none;fillColor=none;align=left;verticalAlign=middle;spacingLeft=4;spacingRight=4;overflow=hidden;points=[[0,0.5],[1,0.5]];portConstraint=eastwest;rotatable=0;whiteSpace=wrap;html=1;" vertex="1" parent="_vVY-Tt0w3IMkvs-we_h-2">
          <mxGeometry y="60" width="140" height="30" as="geometry" />
        </mxCell>
        <mxCell id="_vVY-Tt0w3IMkvs-we_h-10" value="" style="edgeStyle=orthogonalEdgeStyle;rounded=0;orthogonalLoop=1;jettySize=auto;html=1;" edge="1" parent="1" source="_vVY-Tt0w3IMkvs-we_h-7" target="_vVY-Tt0w3IMkvs-we_h-9">
          <mxGeometry relative="1" as="geometry" />
        </mxCell>
        <mxCell id="_vVY-Tt0w3IMkvs-we_h-7" value="cadastrar marca" style="rounded=1;whiteSpace=wrap;html=1;" vertex="1" parent="1">
          <mxGeometry x="480" y="210" width="120" height="60" as="geometry" />
        </mxCell>
        <mxCell id="_vVY-Tt0w3IMkvs-we_h-8" style="edgeStyle=orthogonalEdgeStyle;rounded=0;orthogonalLoop=1;jettySize=auto;html=1;entryX=-0.025;entryY=0.658;entryDx=0;entryDy=0;entryPerimeter=0;" edge="1" parent="1" source="_vVY-Tt0w3IMkvs-we_h-3" target="_vVY-Tt0w3IMkvs-we_h-7">
          <mxGeometry relative="1" as="geometry" />
        </mxCell>
        <mxCell id="_vVY-Tt0w3IMkvs-we_h-14" value="" style="edgeStyle=orthogonalEdgeStyle;rounded=0;orthogonalLoop=1;jettySize=auto;html=1;entryX=0.5;entryY=0;entryDx=0;entryDy=0;" edge="1" parent="1" source="_vVY-Tt0w3IMkvs-we_h-9" target="_vVY-Tt0w3IMkvs-we_h-11">
          <mxGeometry relative="1" as="geometry" />
        </mxCell>
        <mxCell id="_vVY-Tt0w3IMkvs-we_h-9" value="modal" style="whiteSpace=wrap;html=1;rounded=1;" vertex="1" parent="1">
          <mxGeometry x="480" y="350" width="120" height="60" as="geometry" />
        </mxCell>
        <mxCell id="_vVY-Tt0w3IMkvs-we_h-26" style="edgeStyle=orthogonalEdgeStyle;rounded=0;orthogonalLoop=1;jettySize=auto;html=1;entryX=0.5;entryY=0;entryDx=0;entryDy=0;" edge="1" parent="1" source="_vVY-Tt0w3IMkvs-we_h-11" target="_vVY-Tt0w3IMkvs-we_h-15">
          <mxGeometry relative="1" as="geometry" />
        </mxCell>
        <mxCell id="_vVY-Tt0w3IMkvs-we_h-11" value="inputs" style="swimlane;fontStyle=0;childLayout=stackLayout;horizontal=1;startSize=30;horizontalStack=0;resizeParent=1;resizeParentMax=0;resizeLast=0;collapsible=1;marginBottom=0;whiteSpace=wrap;html=1;" vertex="1" parent="1">
          <mxGeometry x="470" y="450" width="140" height="90" as="geometry" />
        </mxCell>
        <mxCell id="_vVY-Tt0w3IMkvs-we_h-12" value="descricao" style="text;strokeColor=none;fillColor=none;align=left;verticalAlign=middle;spacingLeft=4;spacingRight=4;overflow=hidden;points=[[0,0.5],[1,0.5]];portConstraint=eastwest;rotatable=0;whiteSpace=wrap;html=1;" vertex="1" parent="_vVY-Tt0w3IMkvs-we_h-11">
          <mxGeometry y="30" width="140" height="30" as="geometry" />
        </mxCell>
        <mxCell id="_vVY-Tt0w3IMkvs-we_h-13" value="observacao" style="text;strokeColor=none;fillColor=none;align=left;verticalAlign=middle;spacingLeft=4;spacingRight=4;overflow=hidden;points=[[0,0.5],[1,0.5]];portConstraint=eastwest;rotatable=0;whiteSpace=wrap;html=1;" vertex="1" parent="_vVY-Tt0w3IMkvs-we_h-11">
          <mxGeometry y="60" width="140" height="30" as="geometry" />
        </mxCell>
        <mxCell id="_vVY-Tt0w3IMkvs-we_h-19" value="" style="edgeStyle=orthogonalEdgeStyle;rounded=0;orthogonalLoop=1;jettySize=auto;html=1;" edge="1" parent="1" source="_vVY-Tt0w3IMkvs-we_h-15" target="_vVY-Tt0w3IMkvs-we_h-18">
          <mxGeometry relative="1" as="geometry" />
        </mxCell>
        <mxCell id="_vVY-Tt0w3IMkvs-we_h-15" value="salvar" style="whiteSpace=wrap;html=1;rounded=1;" vertex="1" parent="1">
          <mxGeometry x="480" y="600" width="120" height="60" as="geometry" />
        </mxCell>
        <mxCell id="_vVY-Tt0w3IMkvs-we_h-21" value="" style="edgeStyle=orthogonalEdgeStyle;rounded=0;orthogonalLoop=1;jettySize=auto;html=1;" edge="1" parent="1" source="_vVY-Tt0w3IMkvs-we_h-18" target="_vVY-Tt0w3IMkvs-we_h-20">
          <mxGeometry relative="1" as="geometry" />
        </mxCell>
        <mxCell id="_vVY-Tt0w3IMkvs-we_h-25" value="yes" style="edgeLabel;html=1;align=center;verticalAlign=middle;resizable=0;points=[];fontColor=#33FF33;fontStyle=1" vertex="1" connectable="0" parent="_vVY-Tt0w3IMkvs-we_h-21">
          <mxGeometry x="-0.0444" y="-3" relative="1" as="geometry">
            <mxPoint as="offset" />
          </mxGeometry>
        </mxCell>
        <mxCell id="_vVY-Tt0w3IMkvs-we_h-23" value="" style="edgeStyle=orthogonalEdgeStyle;rounded=0;orthogonalLoop=1;jettySize=auto;html=1;fontStyle=1" edge="1" parent="1" source="_vVY-Tt0w3IMkvs-we_h-18" target="_vVY-Tt0w3IMkvs-we_h-22">
          <mxGeometry relative="1" as="geometry" />
        </mxCell>
        <mxCell id="_vVY-Tt0w3IMkvs-we_h-24" value="no" style="edgeLabel;html=1;align=center;verticalAlign=middle;resizable=0;points=[];fontColor=#EA6B66;" vertex="1" connectable="0" parent="_vVY-Tt0w3IMkvs-we_h-23">
          <mxGeometry x="-0.2519" relative="1" as="geometry">
            <mxPoint as="offset" />
          </mxGeometry>
        </mxCell>
        <mxCell id="_vVY-Tt0w3IMkvs-we_h-18" value="validar?" style="rhombus;whiteSpace=wrap;html=1;rounded=1;" vertex="1" parent="1">
          <mxGeometry x="700" y="590" width="80" height="80" as="geometry" />
        </mxCell>
        <mxCell id="_vVY-Tt0w3IMkvs-we_h-20" value="fecha modal" style="whiteSpace=wrap;html=1;rounded=1;" vertex="1" parent="1">
          <mxGeometry x="680" y="440" width="120" height="60" as="geometry" />
        </mxCell>
        <mxCell id="_vVY-Tt0w3IMkvs-we_h-22" value="mostrar erro, voltar ao modal" style="whiteSpace=wrap;html=1;rounded=1;" vertex="1" parent="1">
          <mxGeometry x="680" y="760" width="120" height="60" as="geometry" />
        </mxCell>
      </root>
    </mxGraphModel>
  </diagram>
</mxfile>
